{
	"materials":[{
		"pbrMetallicRoughness":{
			"baseColorFactor":[0.05,
			0.05,
			0.05,
			1.0],
			"metallicFactor":0.05,
			"roughnessFactor":0.75
		},
		"emissiveFactor":[0.0,
		0.0,
		0.0],
		"alphaMode":"OPAQUE",
		"doubleSided":false,
		"name":"材质"
	}],
	"meshes":[{
		"name":"立方体.1",
		"primitives":[{
			"attributes":{
				"POSITION":1,
				"NORMAL":2,
				"TEXCOORD_0":3
			},
			"indices":0,
			"material":0
		}]
	}],
	"asset":{
		"version":"2.0",
		"generator":"Created using the official Cinema 4D glTF Exporter 1.000x284978"
	},
	"scenes":[{
		"nodes":[0]
	}],
	"nodes":[{
		"name":"立方体.1",
		"mesh":0
	}],
	"accessors":[{
		"max":[5626],
		"type":"SCALAR",
		"bufferView":0,
		"componentType":5123,
		"count":30444,
		"byteOffset":0,
		"min":[0]
	},
	{
		"max":[2.5,
		0.25,
		3.5],
		"type":"VEC3",
		"bufferView":1,
		"componentType":5126,
		"count":5627,
		"byteOffset":0,
		"min":[-2.5,
		-0.25,
		-3.5]
	},
	{
		"max":[1.0,
		0.9995352625846863,
		0.9999673962593079],
		"type":"VEC3",
		"bufferView":1,
		"componentType":5126,
		"count":5627,
		"byteOffset":12,
		"min":[-1.0,
		-0.9995352625846863,
		-0.9999673962593079]
	},
	{
		"max":[1.4772613048553467,
		1.4697258472442628],
		"type":"VEC2",
		"bufferView":1,
		"componentType":5126,
		"count":5627,
		"byteOffset":24,
		"min":[-0.47726136445999148,
		-0.4697258472442627]
	}],
	"bufferViews":[{
		"buffer":0,
		"byteOffset":0,
		"byteLength":60888,
		"target":34963
	},
	{
		"buffer":0,
		"byteOffset":60888,
		"byteLength":180064,
		"target":34962,
		"byteStride":32
	}],
	"buffers":[{
		"uri":"data:application/octet-stream;base64,",
		"byteLength":240952
	}]
}